<svg xmlns="http://www.w3.org/2000/svg" xml:space="preserve" width="192" height="192" data-version="2">
    <path fill="#0074d9" d="M129.96 140.28 96.08 36.8 62.35 140.28v-.15q-.92 2.31-2.54 3.77-1.62 1.47-3.93 1.47-1.23 0-2.38-.24-1.16-.23-2.39-.53h.15q-8.77-2.78-6.46-9.86L79.91 28.02q.77-2.47 2.69-4.16 1.93-1.69 4.55-2 2.61-.46 5.08-.7 2.46-.23 3.85-.23 1.38 0 3.85.23 2.46.24 5.08.54 2.16.31 4.23 2.31 2.08 2.01 3.16 4.01 8.63 26.49 17.48 53.36 8.86 26.87 17.48 53.36 2.16 7.08-6.47 9.86-1.23.3-2.23.53-1 .24-2.23.24-2.16 0-3.93-1.47-1.77-1.46-2.54-3.77zm-22.33-33.26q0 4.93-3.47 8.39-3.46 3.47-8.39 3.47-4.93 0-8.32-3.47-3.38-3.46-3.38-8.39 0-4.93 3.38-8.39 3.39-3.47 8.32-3.47t8.39 3.47q3.47 3.46 3.47 8.39" paint-order="stroke"/>
</svg>
